<svg style="max-width:100px;max-height:100px" viewBox="0 0 48 48" version="1.1" xmlns="http://www.w3.org/2000/svg" width="100%" height="100%"><path d="M10.7,21.4c5.1-5.5,10.2-11,15.3-16.5c0.7,3.9,1.4,7.9,2.2,11.8C24.5,20.8,20.8,24.9,17,29  c-2.3,2.5-4.5,5-6.8,7.4c-0.2,0.3-0.6,0.4-1,0.3c-2.8-0.9-5.7-1.9-8.5-2.8c-0.4-0.1-0.7-0.5-0.6-0.9c0.1-0.2,0.2-0.4,0.4-0.5  C4,28.7,7.3,25,10.7,21.4z" fill="#FF3E00"></path><path d="M26.1,4.9c3.2,0.3,6.5,0.5,9.7,0.7c0.6,0.1,1,0.5,1.1,1c3.6,10.5,7.1,21.1,10.6,31.6c0.4,1-0.5,2.1-1.5,2.3  c-3.7,0.7-7.4,1.4-11.2,2.2c-0.5,0.1-1.1,0.1-1.5-0.2c-0.5-0.4-0.5-1.1-0.6-1.7c-1.5-8-3-16-4.5-24.1C27.5,12.8,26.7,8.8,26.1,4.9z" fill="#FFB700"></path><path d="M4.3,12.5c2.2-0.4,4.4-0.7,6.7-1c0.2-0.1,0.5,0.1,0.5,0.4c-0.2,3.2-0.5,6.4-0.7,9.6C7.3,25,4,28.7,0.6,32.4  c-0.2,0.2-0.3,0.3-0.4,0.5c0-0.5,0.1-1,0.2-1.5c1.1-6.1,2.2-12.2,3.3-18.4C3.7,12.8,4,12.5,4.3,12.5z" fill="#00A4F5"></path></svg>