<svg class="icon" style="width: 1em;height: 1em;vertical-align: middle;fill: currentColor;overflow: hidden;" viewBox="0 0 1024 1024" version="1.1" xmlns="http://www.w3.org/2000/svg"><path d="M107.16000031 187.16A120 120 0 0 1 192.00000031 152h279.99999938a40.00000031 40.00000031 0 1 1 0 79.99999969H192.00000031a40.00000031 40.00000031 0 0 0-40.00000031 40.00000031v559.99999969a40.00000031 40.00000031 0 0 0 40.00000031 40.00000031h559.99999969a40.00000031 40.00000031 0 0 0 40.00000031-40.00000031v-279.99999938a40.00000031 40.00000031 0 1 1 79.99999969 0v279.99999938a120 120 0 0 1-120 120H192.00000031a120 120 0 0 1-120-120V272a120 120 0 0 1 35.16-84.84z" fill="#2D3748" /><path d="M831.99999969 147.15999969c-11.88 0-23.32000031 4.72000031-31.71999938 13.12000031l-372.16000031 372.16000031-21.16000031 84.6 84.6-21.16000031 372.16000031-372.16000031A44.83999969 44.83999969 0 0 0 831.99999969 147.15999969z m-88.27999969-43.44a124.84000031 124.84000031 0 0 1 176.56000031 176.56000031l-380.00000062 379.99999969a40.00000031 40.00000031 0 0 1-18.6 10.52000062l-159.99999938 39.99999938a40.00000031 40.00000031 0 0 1-48.48-48.51999938l39.99999938-160.00000031a40.00000031 40.00000031 0 0 1 10.52000062-18.55999969l379.99999969-380.00000062z" fill="#2D3748" /></svg>