<svg t="1584758255651" class="icon" style="margin: 8px;" viewBox="0 0 1024 1024" version="1.1" xmlns="http://www.w3.org/2000/svg" p-id="11942" width="14" height="14"><path d="M320.583806 507.875243a190.358751 190.358751 0 1 0 190.358751-190.358751 190.358751 190.358751 0 0 0-190.358751 190.358751z m190.358751-63.452917a63.452917 63.452917 0 1 1-63.452917 63.452917 63.452917 63.452917 0 0 1 63.452917-63.452917z" fill="#2c2c2c" p-id="11943"></path><path d="M927.828221 232.489584L542.669016 8.500787a63.452917 63.452917 0 0 0-63.452917 0L94.056893 232.489584a63.452917 63.452917 0 0 0-31.726458 55.204038v447.343064a63.452917 63.452917 0 0 0 31.726458 55.204037L479.216099 1015.498578a63.452917 63.452917 0 0 0 63.452917 0l385.159205-223.354267a63.452917 63.452917 0 0 0 31.726458-55.204038V287.059092a63.452917 63.452917 0 0 0-31.726458-54.569508zM832.648846 698.233994l-321.706289 186.551575L189.236269 698.233994V323.861784l321.706288-186.551575 321.706289 186.551575z" fill="#2c2c2c" p-id="11944"></path></svg>